<svg xmlns="http://www.w3.org/2000/svg" width="403.658" height="310.556" viewBox="0 0 403.658 310.556">
  <g id="Group_51" data-name="Group 51" transform="translate(-124 -22)">
    <path id="Path_91" data-name="Path 91" d="M221.327,281.863A155.307,155.307,0,0,1,329.979,133.749,155.232,155.232,0,1,0,330,429.985,155.3,155.3,0,0,1,221.327,281.863Z" transform="translate(-4.304 -104.628)" fill="#a3d7bc"/>
    <path id="Path_92" data-name="Path 92" d="M296.556,126.63A155.378,155.378,0,0,0,250,133.74a155.282,155.282,0,0,1,0,296.244,155.249,155.249,0,1,0,46.556-303.3Z" transform="translate(75.699 -104.627)" fill="#6ccad3"/>
    <ellipse id="Ellipse_23" data-name="Ellipse 23" cx="108.676" cy="148.122" rx="108.676" ry="148.122" transform="translate(217.023 29.113)" fill="#6ccad3"/>
    <path id="Path_93" data-name="Path 93" d="M250.8,368.329h.182a6.8,6.8,0,0,1,3.911-2.867,100.621,100.621,0,0,1-63.313-93.328v-2.867c0-1.939.149-3.845.315-5.751q.448-5.121,1.376-10.094a54.463,54.463,0,0,0,7.574,10.094,53.6,53.6,0,0,0,6.348,5.751,54.843,54.843,0,0,0,73.439-5.751c1.077-1.127,2.122-2.3,3.1-3.53l2.652,3.53,4.293,5.751,1.442,1.906,1.442-1.906,4.309-5.751,3.315-4.492A54.559,54.559,0,0,0,305,263.515a56.355,56.355,0,0,0,6.348,5.751,54.694,54.694,0,0,0,73.323-5.751,55.642,55.642,0,0,0,6.464-8.287c.5-.8.978-1.574,1.442-2.387v10.64h-.4c.166,1.906.265,3.812.315,5.751V272.1a100.621,100.621,0,0,1-63.313,93.328,6.8,6.8,0,0,1,3.911,2.867h1.061a6.53,6.53,0,0,1,8.055-2.6,106.306,106.306,0,0,0,56.1-93.56v-2.867h0V238.124a53.037,53.037,0,0,0,0-24.579V168.8H386.826V153h-2.867V168.8H371.793V153h-2.867V168.8H356.711V153h-2.867V168.8H316.552a105.641,105.641,0,0,0-48.893,0H228.876V153h-2.934V168.8h-12.2V153h-2.867V168.8H198.661V153h-2.867V168.8H185.75V269.3h0v2.867A106.322,106.322,0,0,0,242.1,365.959a6.63,6.63,0,0,1,8.536,2.4Zm41.286-106.72-4.972-6.547a57.4,57.4,0,0,0,3.779-7.044l1.127-1.889,5.154,8.6Zm100.455-87.063v24.281a55.091,55.091,0,0,0-28.391-24.281Zm-53.286,2.486a47.1,47.1,0,0,1,5.552-.348,49.026,49.026,0,0,1,47.733,60.76v.2a47.693,47.693,0,0,1-3.232,9.083A49.221,49.221,0,0,1,321.773,269.3a49.717,49.717,0,0,1-8.536-5.751,49.125,49.125,0,0,1,16.574-84.527A48.289,48.289,0,0,1,339.258,177Zm-71.02-2.486a99.659,99.659,0,0,1,47.6,0,59.878,59.878,0,0,1,5.834,1.657,55.208,55.208,0,0,0-28.922,32.352,55.109,55.109,0,0,0-29.436-32.6A37.681,37.681,0,0,1,268.239,174.546Zm-76.7,0h29.833a55.141,55.141,0,0,0-29.833,27.016Zm49.175,2.138c1.475,0,2.917.1,4.342.232a48.5,48.5,0,0,1,9.861,1.889,49.109,49.109,0,1,1-14.2-2.122Z" transform="translate(33.461 -87.292)" fill="#030303"/>
    <path id="Path_94" data-name="Path 94" d="M217.445,200.919a13.475,13.475,0,0,0,0-26.949,12.763,12.763,0,0,0-2.1.215,13.707,13.707,0,0,0-11.37,13.259,13.1,13.1,0,0,0,.812,4.425A13.425,13.425,0,0,0,217.445,200.919Zm-2.884-22.143a5.784,5.784,0,1,1-5.2,8.287,5.571,5.571,0,0,1-.58-2.453,5.784,5.784,0,0,1,5.784-5.834Z" transform="translate(45.439 -73.506)" fill="#030303"/>
    <path id="Path_95" data-name="Path 95" d="M278.291,200.919a13.475,13.475,0,1,0-9.539-3.941A13.475,13.475,0,0,0,278.291,200.919Zm2.884-22.143a5.768,5.768,0,1,1-4.095,1.689A5.784,5.784,0,0,1,281.175,178.776Z" transform="translate(85.428 -73.506)" fill="#030303"/>
    <path id="Path_96" data-name="Path 96" d="M431.6,284.175H370.279a6.63,6.63,0,0,0-11.3,0h-.182a6.63,6.63,0,0,0-11.3,0h-1.061a6.794,6.794,0,0,0-3.911-2.867,6.629,6.629,0,0,0-7.16,2.585c0,.1-.166.182-.232.282h-.713a100.323,100.323,0,0,1-58.175,0h-.713c0-.1-.166-.182-.232-.282a6.63,6.63,0,0,0-5.42-2.818,6.73,6.73,0,0,0-5.652,3.1h-.2a6.63,6.63,0,0,0-8.536-2.4,6.828,6.828,0,0,0-2.768,2.4h-1.061a6.63,6.63,0,0,0-11.3,0H179.031a12.928,12.928,0,1,0,0,25.839h60.793a6.713,6.713,0,0,0,12.265,0h.1a6.63,6.63,0,0,0,11.883.713,6.63,6.63,0,0,0,11.867-.713h58.639a6.713,6.713,0,0,0,12.265,0h.05a6.63,6.63,0,0,0,11.867.713,6.63,6.63,0,0,0,11.867-.713h60.91a12.928,12.928,0,1,0,0-25.839Zm-192.441,20.1H178.915a7.193,7.193,0,0,1,0-14.37h60.246Zm10.607-14.37v17.353a3.862,3.862,0,0,1-7.724,0V287.821a3.828,3.828,0,0,1,2.768-3.646H247a3.829,3.829,0,0,1,2.768,3.646Zm12.364,0v17.353a3.862,3.862,0,0,1-7.723,0V287.821a3.829,3.829,0,0,1,2.768-3.646h2.188a3.829,3.829,0,0,1,2.768,3.646Zm11.486-.481v17.833a3.862,3.862,0,0,1-7.724,0V287.821a3.977,3.977,0,0,1,.182-1.094,3.845,3.845,0,0,1,2.585-2.552h2.188a3.829,3.829,0,0,1,2.768,3.646Zm60.313,14.917H276.553V290.307a105.625,105.625,0,0,0,57.429,0Zm10.591-14.37v17.353a3.862,3.862,0,0,1-7.724,0V287.821a3.829,3.829,0,0,1,2.768-3.646h2.188a3.845,3.845,0,0,1,2.586,2.552,3.446,3.446,0,0,1,.182,1.094Zm12.381,0v17.353a3.878,3.878,0,0,1-7.74,0V287.821a3.845,3.845,0,0,1,2.768-3.646,3.568,3.568,0,0,1,1.094-.215,3.314,3.314,0,0,1,1.094.215,3.845,3.845,0,0,1,2.785,3.646Zm11.486,0v17.353a3.878,3.878,0,0,1-7.74,0V287.821a3.846,3.846,0,0,1,2.768-3.646,3.569,3.569,0,0,1,1.094-.215,3.314,3.314,0,0,1,1.094.215,3.845,3.845,0,0,1,2.784,3.646Zm63.163,14.37H371.306v-14.37h60.3a7.193,7.193,0,0,1,0,14.37Z" transform="translate(20.241 -3.137)" fill="#030303"/>
  </g>
</svg>
