<svg xmlns="http://www.w3.org/2000/svg" width="19.937" height="19.937" viewBox="0 0 19.937 19.937">
  <path id="Icon_awesome-check-square" data-name="Icon awesome-check-square" d="M17.8,22.187H2.136A2.136,2.136,0,0,1,0,20.051V4.386A2.136,2.136,0,0,1,2.136,2.25H17.8a2.136,2.136,0,0,1,2.136,2.136V20.051A2.136,2.136,0,0,1,17.8,22.187ZM8.692,17.823,16.88,9.635a.712.712,0,0,0,0-1.007L15.873,7.621a.712.712,0,0,0-1.007,0L8.188,14.3,5.071,11.181a.712.712,0,0,0-1.007,0L3.057,12.188a.712.712,0,0,0,0,1.007l4.628,4.628a.712.712,0,0,0,1.007,0Z" transform="translate(0 -2.25)" fill="#6ccad3"/>
</svg>
