<?xml version="1.0" encoding="iso-8859-1"?>
<!-- Generator: Adobe Illustrator 19.0.0, SVG Export Plug-In . SVG Version: 6.00 Build 0)  -->
<svg version="1.1" id="Layer_1" xmlns="http://www.w3.org/2000/svg" xmlns:xlink="http://www.w3.org/1999/xlink" x="0px" y="0px"
	 viewBox="0 0 496.2 496.2" style="enable-background:new 0 0 496.2 496.2;" xml:space="preserve">
<path style="fill:#28616B;" d="M98.1,397.3L98.1,397.3c0.8-4.2,1.6-8,2.4-11.3C99.7,389.3,98.9,393.1,98.1,397.3z"/>
<path style="fill:#4ABC96;" d="M248.1,0C111.1,0,0,111.1,0,248.1s111.1,248.1,248.1,248.1s248.1-111.1,248.1-248.1S385.1,0,248.1,0z
	"/>
<path style="fill:#BF8A3D;" d="M248.1,124.6c-102.8,0-191.8,27.3-191.6,27.8c4.3,10.9,60,70.1,191.6,70.1
	c131.5,0,186.4-59.2,191.4-69.8C439.8,152,350.9,124.6,248.1,124.6z"/>
<path style="fill:#1F4E56;" d="M291.7,321l-10.3-11.7h-66.6L204.5,321c15.3,46-4,47-4,47l33.8,7.6H262l33.8-7.6
	C295.8,368,276.5,367,291.7,321z"/>
<g>
	<path style="fill:#E5BDA3;" d="M287,282.1h-77.8c12.1,36.6,1,53.3,1,53.3l26.9,6.1h22l26.9-6.1C286,335.4,274.9,318.7,287,282.1z"
		/>
	<path style="fill:#E5BDA3;" d="M247.9,317l-37.7,18.4c0,0,16.8,28.1,37.6,28.1s38.2-28.1,38.2-28.1L247.9,317z"/>
</g>
<path style="fill:#F4C9AB;" d="M248.1,104.8c-39.8,0-78.3,5.4-78.3,94.2c0,30,2.8,41.8,11.4,59.9c18.8,40,53,43.1,66.9,43.1
	c13.9,0,48.2-3.2,66.9-43.1c8.5-18.2,11.4-29.9,11.4-59.9C326.4,110.3,287.9,104.8,248.1,104.8z"/>
<g>
	<path style="fill:#D8A684;" d="M233.8,242.9c-0.4-1.5-0.5-3-0.8-4.7c-0.7,0.8-1,1.7-1.2,2.6c-0.2,0.9-0.2,1.8,0,2.6
		s0.7,1.7,1.4,2.3c0.7,0.7,1.7,1.1,2.8,1.3C234.8,245.7,234.2,244.4,233.8,242.9z"/>
	<path style="fill:#D8A684;" d="M244.7,243c-0.3-0.6-0.8-1.1-1.4-1.4c-0.6-0.3-1.3-0.4-2.2-0.2c-0.8,0.1-1.8,0.6-2.6,1.3
		c1.5-0.1,2.7,0.1,3.7,0.6s1.9,1.2,3,1.9C245.2,244.4,245,243.6,244.7,243z"/>
	<path style="fill:#D8A684;" d="M255.4,241.5c-0.8-0.2-1.6,0-2.2,0.2c-0.6,0.3-1.1,0.8-1.4,1.4c-0.3,0.6-0.5,1.3-0.4,2.2
		c1.1-0.7,1.9-1.4,3-1.9c1-0.5,2.1-0.7,3.7-0.6C257.2,242,256.3,241.6,255.4,241.5z"/>
	<path style="fill:#D8A684;" d="M264.5,240.8c-0.2-0.9-0.6-1.8-1.2-2.6c-0.3,1.7-0.4,3.2-0.8,4.7s-1,2.7-2.2,4.1
		c1.1-0.2,2.1-0.7,2.8-1.3c0.7-0.7,1.1-1.5,1.4-2.3C264.7,242.6,264.7,241.7,264.5,240.8z"/>
	<path style="fill:#D8A684;" d="M256.1,213.7c0.1-2.7,0.3-5.3,0.7-7.9c0.4-2.6,1.1-5.2,2.1-7.8c-1.7,2.2-2.9,4.7-3.7,7.4
		c-0.8,2.7-1.1,5.5-1.2,8.2c-0.1,2.8,0.2,5.5,0.7,8.3c0.5,2.7,1.2,5.4,2.4,7.9C256.5,224.4,256,219,256.1,213.7z"/>
	<path style="fill:#D8A684;" d="M240.1,211.4c-0.1-0.9-0.2-1.9-0.5-2.8c-0.2-0.9-0.6-1.8-1.1-2.6c-0.1,1-0.1,1.9-0.1,2.8
		c0,0.9,0.1,1.8,0.1,2.7c0.1,0.9,0.1,1.8,0.3,2.7c0.1,0.9,0.3,1.8,0.5,2.8c0.4-0.9,0.5-1.8,0.6-2.8
		C240.2,213.3,240.2,212.4,240.1,211.4z"/>
</g>
<g>
	<path style="fill:#F4C9AB;" d="M165.4,178c-8.4,1.4-14.9,5.1-10.1,32.9s10.7,29.1,19.1,27.7L165.4,178z"/>
	<path style="fill:#F4C9AB;" d="M331.4,178l-9,60.6c8.4,1.4,14.3,0.1,19.1-27.7C346.2,183.1,339.8,179.5,331.4,178z"/>
</g>
<g>
	<path style="fill:#D37D76;" d="M260.5,259.3c-3.5-0.4-12.4,2.3-12.4,2.3s-9-2.7-12.5-2.3c-5.7,0.7-14.2,6.7-14.2,8
		c0,0,11.9,7.5,26.7,7.5c14.8,0,26.7-7.5,26.7-7.5S266.2,260,260.5,259.3z"/>
	<path style="fill:#D37D76;" d="M255.4,266.7c-2.3-0.1-5.3-0.2-7.3-0.2c-2.3,0-5.7,0.1-8.3,0.3c-15.6,0.7-18.3,0.6-18.3,0.6
		s11.9,7.5,26.7,7.5c14.8,0,26.7-7.5,26.7-7.5S271.5,267.4,255.4,266.7z"/>
</g>
<path style="fill:#E2A379;" d="M285.9,335.4c0,0-8.9,17.3-38.1,17.3s-37.5-17.3-37.5-17.3s-7,54.7,37.9,54.7
	S285.9,335.4,285.9,335.4z"/>
<path style="fill:#D8A684;" d="M266.4,204.5c0.1,0.6,5.7,5.7,17.7,4.2c14.8-1.9,14.6-11.2,14.6-11.2
	C276.8,191.3,266.4,204.5,266.4,204.5z"/>
<path style="fill:#F7F0EB;" d="M296.9,197.5c-20.9-5.1-30.6,7.1-30.6,7.1c0.1,0.5,5.5,2.6,16.9,0.9
	C297.2,203.5,296.9,197.5,296.9,197.5z"/>
<path style="fill:#21150E;" d="M288,196.2c-4.7-0.1-8.5,0.7-11.7,1.8c-0.3,0.8-0.5,1.7-0.5,2.6c0,2.2,1,4.2,2.6,5.4
	c1.5-0.1,3-0.2,4.8-0.5c2-0.3,3.7-0.7,5.2-1.1c0.7-1.1,1.2-2.4,1.2-3.8C289.6,198.9,289,197.4,288,196.2z"/>
<path style="fill:#191919;" d="M302.2,195.8c-1.9,0.1-5.1-1.1-5.1-1.1c-25.2-8.6-30.8,9.8-30.8,9.8s9.3-11.7,29.2-7.4
	c0,0,0.9,0.2,1.3,0.2C302.5,198.5,302.2,195.8,302.2,195.8z"/>
<path style="fill:#686565;" d="M302.2,181.7c-14.7-8-27.1-1.9-33.9,3c-3,2.1-4.9,3.2-3.1,6.1c1.6,2.6,6.1-1.8,7.1-2.5
	c15.5-10.7,33.9-3.8,33.5-4.3C305.5,183.4,303.4,182.4,302.2,181.7z"/>
<path style="fill:#D8A684;" d="M197.5,197.6c0,0-0.2,9.4,14.6,11.2c12,1.5,17.7-3.7,17.7-4.2C229.8,204.5,219.4,191.3,197.5,197.6z"
	/>
<path style="fill:#F7F0EB;" d="M199.3,197.5c0,0-0.3,6,13.7,8c11.4,1.6,16.8-0.4,16.9-0.9C229.8,204.5,220.2,192.4,199.3,197.5z"/>
<path style="fill:#21150E;" d="M219.9,198c-3.1-1.1-7-1.9-11.7-1.8c-1,1.2-1.6,2.7-1.6,4.4c0,1.4,0.4,2.7,1.2,3.8
	c1.5,0.4,3.2,0.8,5.2,1.1c1.7,0.2,3.3,0.4,4.8,0.5c1.6-1.3,2.6-3.2,2.6-5.4C220.4,199.7,220.2,198.8,219.9,198z"/>
<path style="fill:#191919;" d="M199.1,194.7c0,0-3.2,1.2-5.1,1.1c0,0-0.2,2.7,5.3,1.6c0.4-0.1,1.3-0.2,1.3-0.2
	c20-4.3,29.2,7.4,29.2,7.4S224.3,186.1,199.1,194.7z"/>
<g>
	<path style="fill:#686565;" d="M227.9,184.7c-6.9-4.8-19.2-10.9-33.9-3c-1.2,0.7-3.2,1.6-3.6,2.2c-0.4,0.5,18-6.3,33.5,4.3
		c1,0.7,5.6,5.1,7.1,2.5C232.8,187.9,230.9,186.8,227.9,184.7z"/>
	<path style="fill:#686565;" d="M361.8,234.3c-10-36.7-4.7-50.5-19.3-92c-21.8-61.6-43.1-65.2-90.2-65.2l0,0l0,0
		c-12.1,8.5,20.2,42.6,14.1,26.1C313.8,231.8,361.8,234.3,361.8,234.3z"/>
	<path style="fill:#686565;" d="M262.6,79.1c-8.5-0.8-19.4-0.5-19.4-0.5l0,0l0,0c-47,0-68.4,3.6-90.1,65.2
		c-14.6,41.5-9.3,55.3-19.3,92c0,0,150.2-75.2,150.2-131C284,86.9,271.1,79.9,262.6,79.1z"/>
</g>
<path style="fill:#E2A84B;" d="M56.7,153.5c-0.1,0-0.2,0.1-0.2,0.1S56.6,153.6,56.7,153.5z M248.1,61.1c-50,0-185.9,89.2-191.4,92.4
	c4.9-1.5,111.7-7.8,191.4-7.8c81.6,0,191.4,8.2,191.4,8.2C439.8,153.3,299.1,61.1,248.1,61.1z"/>
<g>
	<path style="fill:#337180;" d="M291.7,321c0,0-17,12.1-43.6,12.1S204.5,321,204.5,321c13.6,46-5.9,67-5.9,67l35.1,7.6h28.7
		l35.1-7.6C297.6,388,278.1,367,291.7,321z"/>
	<path style="fill:#337180;" d="M210.2,335.4c-57.2,6.2-103,25.1-109,47.3c-3.3,12.2-7,35.2-10.1,57.5
		c42.7,34.9,97.4,55.9,156.9,55.9c35.2,0,68.7-7.3,99-20.6L210.2,335.4z"/>
</g>
<path style="fill:#275D66;" d="M210.1,335.4c-6.7,0.7-13.2,1.6-19.5,2.7l140.5,143.8c5.4-1.9,10.7-4,15.9-6.3L210.1,335.4z"/>
<path style="fill:#337180;" d="M394.8,382.8c-6-22.2-51.6-41.1-108.8-47.3L149.1,475.6c30.3,13.2,63.8,20.6,99,20.6
	c59.5,0,114.1-21,156.9-55.9C401.8,417.9,398.1,394.9,394.8,382.8z"/>
<path style="fill:#275D66;" d="M286,335.4L149.1,475.6c5.2,2.3,10.5,4.4,15.9,6.3l140.5-143.8C299.2,337.1,292.7,336.2,286,335.4z"
	/>
<g>
</g>
<g>
</g>
<g>
</g>
<g>
</g>
<g>
</g>
<g>
</g>
<g>
</g>
<g>
</g>
<g>
</g>
<g>
</g>
<g>
</g>
<g>
</g>
<g>
</g>
<g>
</g>
<g>
</g>
</svg>
