<svg xmlns="http://www.w3.org/2000/svg" xmlns:xlink="http://www.w3.org/1999/xlink" width="266.718" height="289.108" viewBox="0 0 266.718 289.108">
  <defs>
    <linearGradient id="linear-gradient" x1="0.618" y1="0.837" x2="0.47" y2="0.166" gradientUnits="objectBoundingBox">
      <stop offset="0" stop-color="#d4d1d8"/>
      <stop offset="1" stop-color="#fff"/>
    </linearGradient>
    <linearGradient id="linear-gradient-2" x1="0.526" y1="0.439" x2="0.48" y2="0.31" gradientUnits="objectBoundingBox">
      <stop offset="0" stop-color="#fff"/>
      <stop offset="1" stop-color="#e6e7e8"/>
    </linearGradient>
    <linearGradient id="linear-gradient-3" x1="-0.164" y1="-0.599" x2="0.496" y2="0.432" xlink:href="#linear-gradient"/>
    <linearGradient id="linear-gradient-4" x1="0.029" y1="0.576" x2="0.501" y2="0.5" xlink:href="#linear-gradient"/>
    <linearGradient id="linear-gradient-5" x1="0.478" y1="1.042" x2="0.49" y2="0.739" gradientUnits="objectBoundingBox">
      <stop offset="0" stop-color="#fff"/>
      <stop offset="1" stop-color="#dedfe0"/>
    </linearGradient>
    <linearGradient id="linear-gradient-6" x1="1.243" y1="0.914" x2="0.438" y2="0.368" xlink:href="#linear-gradient"/>
  </defs>
  <g id="Group_621" data-name="Group 621" transform="translate(-1904.749 23988.107)">
    <g id="Group_398" data-name="Group 398" transform="translate(1922.958 -23792.129)">
      <path id="Path_349" data-name="Path 349" d="M341.545,336.8l8.351,4.95,18.121-.795c9.3-.408,18.156,3.361,23.285,9.905l5.3,6.768c3.27,4.173,8.961,6.532,14.88,6.171l10.017-.612a30.325,30.325,0,0,1,19.2,5.221l5.216,3.678,21.492,5.019a17.613,17.613,0,0,0,15.854-3.909l42.088-39.553,42.088-39.553c4.472-4.2-.14-10.756-6.663-9.468l-108.545,21.43L343.69,327.484C338.5,328.508,337.187,334.217,341.545,336.8Z" transform="translate(-338.921 -284.459)" opacity="0"/>
      <path id="Path_350" data-name="Path 350" d="M453.154,306.658l-52.7,10.382-52.7,10.382c-4.942.975-5.969,6.48-1.819,8.941l8.124,4.767,17.577-.662c8.854-.389,17.75,3.338,22.636,9.572l5.336,6.53c3.114,3.974,9.089,6.387,14.727,6.042l9.873-.482a29.2,29.2,0,0,1,18.424,4.857l5.011,3.466,20.619,4.654a17.044,17.044,0,0,0,15.215-3.82l40.48-38,40.742-38.221c4.259-4,.051-10.4-6.162-9.171Z" transform="translate(-338.645 -284.379)" opacity="0.014"/>
      <path id="Path_351" data-name="Path 351" d="M454.075,307.262l-51.12,10.048-51.119,10.05c-4.694.926-5.435,6.226-1.491,8.564l7.9,4.581,17.033-.528c8.411-.369,17.346,3.316,21.987,9.237l5.368,6.293c2.959,3.774,9.219,6.242,14.575,5.915l9.728-.354c6.3-.386,12.805,1.077,17.648,4.491l4.8,3.257,19.746,4.289a16.486,16.486,0,0,0,14.576-3.731l38.869-36.448,39.4-36.889c4.045-3.8.24-10.039-5.662-8.874Z" transform="translate(-338.368 -284.299)" opacity="0.029"/>
      <path id="Path_352" data-name="Path 352" d="M454.995,307.867l-49.542,9.716L355.909,327.3c-4.447.878-4.9,5.972-1.164,8.187l7.67,4.4,16.488-.4c7.968-.349,16.941,3.292,21.337,8.9l5.4,6.056c2.8,3.576,9.348,6.1,14.423,5.788l9.584-.225c5.967-.364,12.285.892,16.872,4.127l4.6,3.046,18.873,3.924a15.924,15.924,0,0,0,13.937-3.643l37.261-34.894,38.052-35.558c3.833-3.6.43-9.681-5.161-8.577Z" transform="translate(-338.092 -284.219)" opacity="0.043"/>
      <path id="Path_353" data-name="Path 353" d="M455.916,308.47l-47.967,9.383-47.966,9.383c-4.2.829-4.366,5.72-.838,7.811l7.443,4.211L382.532,339c7.525-.33,16.535,3.27,20.688,8.568l5.432,5.819c2.647,3.377,9.478,5.952,14.27,5.66l9.44-.1c5.637-.344,11.764.708,16.1,3.763l4.393,2.834,18,3.559a15.368,15.368,0,0,0,13.3-3.552L519.8,332.21l36.707-34.226c3.62-3.4.621-9.323-4.659-8.28Z" transform="translate(-337.816 -284.14)" opacity="0.057"/>
      <path id="Path_354" data-name="Path 354" d="M456.838,309.074l-46.391,9.05-46.391,9.051c-3.953.78-3.832,5.466-.511,7.434l7.215,4.027,15.4-.129c7.084-.311,16.13,3.247,20.039,8.233l5.464,5.582c2.491,3.178,9.607,5.808,14.117,5.533l9.3.032c5.3-.325,11.243.523,15.321,3.4l4.188,2.623,17.128,3.194a14.823,14.823,0,0,0,12.659-3.463l34.042-31.79,35.362-32.894a4.64,4.64,0,0,0-4.158-7.983Z" transform="translate(-337.541 -284.06)" opacity="0.071"/>
      <path id="Path_355" data-name="Path 355" d="M457.759,309.679,412.946,318.4l-44.814,8.717c-3.706.732-3.3,5.212-.185,7.058l6.988,3.842,14.857,0c6.641-.291,15.726,3.225,19.39,7.9l5.5,5.345c2.336,2.98,9.736,5.663,13.964,5.4l9.152.16c4.974-.3,10.722.339,14.545,3.035l3.983,2.413,16.255,2.829a14.28,14.28,0,0,0,12.019-3.375l32.433-30.237,34.018-31.563c3.194-3,1-8.6-3.659-7.685Z" transform="translate(-337.266 -283.98)" opacity="0.086"/>
      <path id="Path_356" data-name="Path 356" d="M458.682,310.283l-43.238,8.384-43.238,8.385c-3.459.682-2.763,4.959.142,6.681l6.761,3.658,14.313.137c6.2-.272,15.32,3.2,18.739,7.566l5.528,5.108c2.18,2.781,9.865,5.518,13.811,5.277l9.008.289c4.641-.283,10.2.154,13.769,2.67l3.777,2.2,15.381,2.464c3.825.893,8.731-.8,11.381-3.285l30.824-28.684L548.314,300.9c2.982-2.8,1.192-8.247-3.157-7.387Z" transform="translate(-336.992 -283.9)" opacity="0.1"/>
      <path id="Path_357" data-name="Path 357" d="M459.605,310.886l-41.66,8.051-41.661,8.051c-3.212.634-2.23,4.706.469,6.306l6.534,3.473,13.767.27c5.756-.252,14.916,3.18,18.091,7.231l5.56,4.87c2.024,2.584,9.994,5.374,13.659,5.15l8.863.418c4.31-.262,9.68-.031,12.993,2.305L459.792,359l14.508,2.1c3.551.83,8.282-.885,10.742-3.2l29.215-27.131,31.326-28.9c2.768-2.6,1.382-7.888-2.656-7.091Z" transform="translate(-336.718 -283.821)" opacity="0.114"/>
      <path id="Path_358" data-name="Path 358" d="M460.53,311.491l-40.085,7.719-40.085,7.718c-2.965.586-1.694,4.452.8,5.929l6.307,3.288,13.223.4c5.313-.233,14.511,3.157,17.442,6.9l5.591,4.633c1.87,2.385,10.124,5.229,13.507,5.023l8.72.546c3.978-.243,9.158-.216,12.218,1.941l3.364,1.78,13.636,1.734c3.278.766,7.831-.973,10.1-3.107l27.605-25.579,29.982-27.567c2.555-2.4,1.572-7.53-2.155-6.794Z" transform="translate(-336.446 -283.741)" opacity="0.129"/>
      <path id="Path_359" data-name="Path 359" d="M461.456,312.1l-38.508,7.385-38.508,7.385c-2.718.538-1.161,4.2,1.122,5.553l6.08,3.1,12.679.536c4.871-.214,14.107,3.135,16.793,6.563l5.623,4.395c1.714,2.186,10.254,5.084,13.354,4.9l8.576.675c3.646-.223,8.637-.4,11.441,1.576l3.159,1.569L476.03,357.1c3.005.7,7.382-1.062,9.463-3.019l26-24.025,28.636-26.235c2.342-2.2,1.762-7.172-1.654-6.5Z" transform="translate(-336.174 -283.661)" opacity="0.143"/>
      <path id="Path_360" data-name="Path 360" d="M462.382,312.7l-36.932,7.053L388.518,326.8c-2.471.489-.626,3.945,1.449,5.176l5.852,2.918,12.135.67c4.428-.194,13.7,3.112,16.144,6.228l5.655,4.158c1.557,1.988,10.382,4.94,13.2,4.768l8.432.8c3.316-.2,8.117-.585,10.666,1.212l2.953,1.358,11.891,1c2.732.638,6.932-1.151,8.824-2.929L510.108,329.7l27.291-24.9c2.13-2,1.953-6.813-1.154-6.2Z" transform="translate(-335.904 -283.581)" opacity="0.157"/>
      <path id="Path_361" data-name="Path 361" d="M463.31,313.3l-35.355,6.719L392.6,326.742c-2.225.44-.092,3.692,1.775,4.8L400,334.275l11.59.8c3.985-.175,13.3,3.089,15.494,5.894l5.688,3.921c1.4,1.789,10.512,4.794,13.049,4.64l8.288.932c2.983-.182,7.6-.77,9.889.848l2.748,1.146,11.017.639c2.458.574,6.482-1.24,8.185-2.84l22.778-20.92,25.946-23.572c1.916-1.8,2.143-6.455-.653-5.9Z" transform="translate(-335.635 -283.502)" opacity="0.171"/>
      <path id="Path_362" data-name="Path 362" d="M464.24,313.908l-33.78,6.387-33.779,6.387c-1.977.391.442,3.438,2.1,4.422l5.4,2.55,11.046.936c3.542-.155,12.891,3.066,14.845,5.559l5.72,3.684c1.246,1.59,10.64,4.65,12.9,4.512l8.144,1.061c2.653-.163,7.075-.955,9.114.482l2.542.937,10.145.274c2.185.51,6.032-1.328,7.546-2.751l21.169-19.367,24.6-22.24c1.7-1.6,2.333-6.1-.152-5.606Z" transform="translate(-335.368 -283.422)" opacity="0.186"/>
      <path id="Path_363" data-name="Path 363" d="M465.17,314.512l-32.2,6.054-32.2,6.053c-1.731.342.976,3.185,2.428,4.046l5.171,2.364,10.5,1.07c3.1-.136,12.485,3.044,14.2,5.226l5.751,3.446c1.09,1.391,10.77,4.505,12.744,4.384l8,1.19c2.32-.142,6.553-1.14,8.337.118l2.337.726,9.271-.091c1.913.447,5.582-1.416,6.907-2.661l19.561-17.815,23.255-20.908c1.49-1.4,2.524-5.738.35-5.308Z" transform="translate(-335.102 -283.342)" opacity="0.2"/>
      <path id="Path_364" data-name="Path 364" d="M466.1,315.117l-30.627,5.721-30.626,5.721c-1.482.293,1.511,2.931,2.756,3.669l4.944,2.18,9.958,1.2c2.657-.117,12.081,3.021,13.547,4.891l5.783,3.209c.934,1.192,10.9,4.36,12.591,4.257l7.855,1.318c1.99-.121,6.033-1.325,7.563-.246l2.131.514,8.4-.456c1.639.382,5.133-1.505,6.269-2.572L504.6,328.263l21.91-19.578c1.277-1.2,2.713-5.379.85-5.01Z" transform="translate(-334.838 -283.263)" opacity="0.214"/>
      <path id="Path_365" data-name="Path 365" d="M467.038,315.721l-29.05,5.387L408.938,326.5c-1.235.244,2.044,2.678,3.082,3.293l4.717,1.994,9.414,1.336c2.214-.1,11.676,3,12.9,4.556l5.815,2.972c.779.993,11.029,4.215,12.439,4.129l7.711,1.447c1.657-.1,5.511-1.51,6.786-.611l1.925.3,7.525-.821c1.366.319,4.683-1.595,5.629-2.484L503.22,327.9l20.565-18.245c1.064-1,2.9-5.019,1.35-4.714Z" transform="translate(-334.575 -283.183)" opacity="0.229"/>
      <path id="Path_366" data-name="Path 366" d="M467.973,316.325,440.5,321.38l-27.474,5.055c-.988.2,2.579,2.424,3.409,2.916l4.49,1.81,8.869,1.468c1.771-.078,11.27,2.977,12.247,4.223l5.847,2.735c.624.795,11.159,4.07,12.286,4l7.567,1.575c1.327-.082,4.991-1.694,6.011-.975l1.72.092,6.652-1.187c1.093.256,4.233-1.683,4.99-2.393l14.733-13.157,19.219-16.913c.852-.8,3.095-4.661,1.852-4.416Z" transform="translate(-334.314 -283.104)" opacity="0.243"/>
      <path id="Path_367" data-name="Path 367" d="M468.91,316.929l-25.9,4.722-25.9,4.722c-.74.147,3.114,2.17,3.736,2.54l4.263,1.624,8.325,1.6c1.329-.057,10.865,2.953,11.6,3.888l5.879,2.5c.467.6,11.287,3.925,12.133,3.873l7.424,1.705c.994-.062,4.469-1.879,5.234-1.341l1.514-.118L483,341.1c.819.191,3.783-1.771,4.35-2.305l13.124-11.6,17.875-15.581c.639-.6,3.285-4.3,2.353-4.119Z" transform="translate(-334.054 -283.024)" opacity="0.257"/>
      <path id="Path_368" data-name="Path 368" d="M469.848,317.534l-24.32,4.388-24.321,4.39c-.494.1,3.647,1.916,4.062,2.163l4.036,1.441,7.781,1.735c.886-.038,10.461,2.931,10.949,3.555l5.911,2.261c.311.4,11.417,3.781,11.98,3.746l7.28,1.834c.663-.04,3.949-2.064,4.458-1.705l1.309-.328,4.907-1.916c.546.127,3.334-1.86,3.712-2.216l11.514-10.051,16.53-14.25c.426-.4,3.475-3.944,2.853-3.822Z" transform="translate(-333.796 -282.945)" opacity="0.271"/>
      <path id="Path_369" data-name="Path 369" d="M470.788,318.139l-22.744,4.056L425.3,326.251c-.246.049,4.182,1.664,4.389,1.787l3.808,1.256,7.238,1.868a103.6,103.6,0,0,1,10.3,3.22l5.944,2.024c.155.2,11.545,3.635,11.828,3.618l7.135,1.962c.331-.02,3.428-2.249,3.683-2.069l1.1-.54,4.034-2.282a18.848,18.848,0,0,0,3.073-2.126l9.905-8.5,15.185-12.918a39.531,39.531,0,0,0,3.355-3.525Z" transform="translate(-333.539 -282.866)" opacity="0.286"/>
      <path id="Path_370" data-name="Path 370" d="M429.394,326.19l24.641,7.368,24.641,7.368,17.694-14.814L514.065,311.3l-42.335,7.446-21.168,3.723Z" transform="translate(-333.283 -282.786)" opacity="0.3"/>
    </g>
    <g id="Group_399" data-name="Group 399" transform="translate(1769.033 -23988.107)">
      <path id="Path_374" data-name="Path 374" d="M589.487,60.734,378.652,159.8l20.006,64.443Z" transform="translate(-187.054 -60.734)" fill="url(#linear-gradient)"/>
      <path id="Path_375" data-name="Path 375" d="M589.487,60.734,378.652,159.8l20.006,64.443Z" transform="translate(-187.054 -60.734)" fill="url(#linear-gradient-2)" style="mix-blend-mode: multiply;isolation: isolate"/>
      <path id="Path_376" data-name="Path 376" d="M592.765,60.734,381.931,159.8l-35.107,2.4-20.776-19.237Z" transform="translate(-190.332 -60.734)" fill="url(#linear-gradient-3)"/>
      <path id="Path_377" data-name="Path 377" d="M588.313,60.734,417.491,183.08l-20.006,41.167Z" transform="translate(-185.88 -60.734)" fill="url(#linear-gradient-4)"/>
      <path id="Path_378" data-name="Path 378" d="M588.313,60.734,417.491,183.08l-20.006,41.167Z" transform="translate(-185.88 -60.734)" fill="url(#linear-gradient-5)" style="mix-blend-mode: multiply;isolation: isolate"/>
      <path id="Path_379" data-name="Path 379" d="M587.14,60.734,416.317,183.08l26.643,29.336,32.7,11.927Z" transform="translate(-184.707 -60.734)" fill="url(#linear-gradient-6)"/>
      <path id="Path_380" data-name="Path 380" d="M481.288,219.518l-32.7-11.927-26.643-29.336-20.006,41.167-20.006-64.443-35.107,2.4-20.776-19.237,21.545,18.66,34.939-2.068,19.6,61.99,19.814-38.474,26.739,28.086Z" transform="translate(-190.332 -55.909)" fill="#fff"/>
    </g>
  </g>
</svg>
