<?xml version="1.0" encoding="utf-8"?>
<!-- Generator: Adobe Illustrator 16.0.0, SVG Export Plug-In . SVG Version: 6.00 Build 0)  -->
<!DOCTYPE svg PUBLIC "-//W3C//DTD SVG 1.1//EN" "http://www.w3.org/Graphics/SVG/1.1/DTD/svg11.dtd">
<svg version="1.1" id="Layer_1" xmlns="http://www.w3.org/2000/svg" xmlns:xlink="http://www.w3.org/1999/xlink" x="0px" y="0px"
	 width="15px" height="15px" viewBox="0 0 15 15" enable-background="new 0 0 15 15" xml:space="preserve">
<g>
	<g>
		<path fill="#00CF29" d="M11.4,5.586l-4.739,4.762H6.657c-0.06,0.061-0.223,0.195-0.411,0.195c-0.135,0-0.287-0.074-0.415-0.202
			L3.845,8.355C3.789,8.301,3.788,8.211,3.842,8.156c0.001-0.002,0.002-0.002,0.003-0.004l0.631-0.629
			c0.026-0.027,0.062-0.042,0.1-0.043c0.037,0,0.073,0.015,0.099,0.042l1.574,1.574l4.326-4.356c0.026-0.027,0.062-0.043,0.1-0.043
			c0.038,0,0.074,0.014,0.099,0.043l0.621,0.642C11.458,5.441,11.458,5.53,11.4,5.586z M7.625,0.25c-4.073,0-7.375,3.3-7.375,7.373
			c0,0,0,0.001,0,0.002C0.25,11.697,3.55,15,7.623,15c0,0,0.001,0,0.002,0C11.697,15,15,11.699,15,7.627c0,0,0-0.001,0-0.002
			c0-4.073-3.301-7.375-7.373-7.375C7.626,0.25,7.625,0.25,7.625,0.25z"/>
	</g>
</g>
</svg>
