<svg xmlns="http://www.w3.org/2000/svg" width="34" height="34" viewBox="0 0 34 34">
  <g id="Group_535" data-name="Group 535" transform="translate(-1408 -1436)">
    <circle id="Ellipse_596" data-name="Ellipse 596" cx="17" cy="17" r="17" transform="translate(1408 1436)" fill="#fff"/>
    <g id="noun_like_1548951" transform="translate(1483 1404.438)">
      <g id="Group_521" data-name="Group 521" transform="translate(-71.999 33.439)">
        <path id="Path_549" data-name="Path 549" d="M11.069,53.663a.491.491,0,0,0,.493-.493V46.493A.491.491,0,0,0,11.069,46H7.493A.491.491,0,0,0,7,46.493v6.7a.487.487,0,0,0,.493.474Z" transform="translate(0 -32.602)" fill="#9f9f9f"/>
        <path id="Path_550" data-name="Path 550" d="M40.623,8.453a2.039,2.039,0,0,0-1.168-2.317c-.8-.164-.894,1.149-.894,1.149-.2,1.533-1.733,2.828-2.189,3.284A13,13,0,0,0,35.314,12.6a6.762,6.762,0,0,1-.967,1.168H34v6.422a7.209,7.209,0,0,0,.712.511h7.079c1.222-.182.858-1.788.858-1.788a1.61,1.61,0,0,0,.237-1.989c1.3-1.259.292-2.262.292-2.262a1.593,1.593,0,0,0,.2-1.989c-.493-1.058-2.518-.73-3.357-.766-.858-.036-.93-.365-.693-.8A16.28,16.28,0,0,0,40.623,8.453Z" transform="translate(-22.074)" fill="#9f9f9f"/>
      </g>
    </g>
  </g>
</svg>
