<svg xmlns="http://www.w3.org/2000/svg" width="50.556" height="45.5" viewBox="0 0 50.556 45.5">
  <g id="Icon_material-photo-camera" data-name="Icon material-photo-camera" transform="translate(-3 -3)">
    <path id="Path_122" data-name="Path 122" d="M29.378,21.289A8.089,8.089,0,1,1,21.289,13.2,8.089,8.089,0,0,1,29.378,21.289Z" transform="translate(6.989 6.989)" fill="#fff"/>
    <path id="Path_123" data-name="Path 123" d="M20.694,3,16.069,8.056H8.056A5.07,5.07,0,0,0,3,13.111V43.444A5.07,5.07,0,0,0,8.056,48.5H48.5a5.07,5.07,0,0,0,5.056-5.056V13.111A5.07,5.07,0,0,0,48.5,8.056H40.487L35.861,3Zm7.583,37.917A12.639,12.639,0,1,1,40.917,28.278,12.644,12.644,0,0,1,28.278,40.917Z" transform="translate(0 0)" fill="#fff"/>
  </g>
</svg>
