<svg id="contract" xmlns="http://www.w3.org/2000/svg" width="44" height="44" viewBox="0 0 44 44">
  <g id="Group_4" data-name="Group 4" transform="translate(25.714)">
    <g id="Group_3" data-name="Group 3">
      <path id="Path_31" data-name="Path 31" d="M306.981,7.513a3.843,3.843,0,0,0-1.133-2.734L302.2,1.133A3.953,3.953,0,0,0,299.444,0h-.222V7.734h7.759V7.513Z" transform="translate(-299.222)" fill="#fff"/>
    </g>
  </g>
  <g id="Group_6" data-name="Group 6">
    <g id="Group_5" data-name="Group 5">
      <path id="Path_32" data-name="Path 32" d="M23.542,26.6a5.174,5.174,0,0,1,1.239-2.012L33.508,15.9V10.313H24.45A1.253,1.253,0,0,1,23.2,9.023V0H3.867A3.871,3.871,0,0,0,0,3.867V40.133A3.871,3.871,0,0,0,3.867,44H29.607a3.9,3.9,0,0,0,3.9-3.867V30.512l-1.417,1.382a5.126,5.126,0,0,1-2,1.236l-4.1,1.368-.624.034a3.223,3.223,0,0,1-3.054-4.246Zm-17.1-3.4H19.294a1.289,1.289,0,1,1,0,2.578H6.445a1.289,1.289,0,1,1,0-2.578ZM5.156,19.336a1.288,1.288,0,0,1,1.289-1.289H19.294a1.289,1.289,0,1,1,0,2.578H6.445A1.288,1.288,0,0,1,5.156,19.336Zm0,10.313a1.288,1.288,0,0,1,1.289-1.289H19.294a1.289,1.289,0,1,1,0,2.578H6.445A1.288,1.288,0,0,1,5.156,29.648ZM24.45,36.094a1.289,1.289,0,1,1,0,2.578H16.716a1.289,1.289,0,0,1,0-2.578ZM6.445,15.469a1.289,1.289,0,1,1,0-2.578H24.45a1.289,1.289,0,1,1,0,2.578Z" fill="#fff"/>
    </g>
  </g>
  <g id="Group_8" data-name="Group 8" transform="translate(24.721 27.741)">
    <g id="Group_7" data-name="Group 7">
      <path id="Path_33" data-name="Path 33" d="M288.818,322.808l-1.122,3.365a.644.644,0,0,0,.816.815l3.363-1.123Z" transform="translate(-287.663 -322.808)" fill="#fff"/>
    </g>
  </g>
  <g id="Group_10" data-name="Group 10" transform="translate(27.399 17.128)">
    <g id="Group_9" data-name="Group 9">
      <path id="Path_34" data-name="Path 34" d="M327.31,199.307l-8.49,8.49,3.661,3.661,8.489-8.49Z" transform="translate(-318.82 -199.307)" fill="#fff"/>
    </g>
  </g>
  <g id="Group_12" data-name="Group 12" transform="translate(37.711 12.714)">
    <g id="Group_11" data-name="Group 11">
      <path id="Path_35" data-name="Path 35" d="M444.35,148.665a2.692,2.692,0,0,0-3.658,0l-1.873,1.873,3.661,3.661,1.873-1.873A2.6,2.6,0,0,0,444.35,148.665Z" transform="translate(-438.819 -147.949)" fill="#fff"/>
    </g>
  </g>
  <g id="Group_15" data-name="Group 15" transform="translate(43.245 17.067)">
    <g id="Group_14" data-name="Group 14">
      <g id="Group_13" data-name="Group 13">
        <path id="Path_36" data-name="Path 36" d="M503.215,198.816h0l.007-.007Z" transform="translate(-503.215 -198.79)" fill="#fff"/>
        <path id="Path_37" data-name="Path 37" d="M503.3,198.686l.011-.011Z" transform="translate(-503.295 -198.669)" fill="#fff"/>
        <path id="Path_38" data-name="Path 38" d="M503.436,198.608Z" transform="translate(-503.417 -198.602)" fill="#fff"/>
      </g>
    </g>
  </g>
</svg>
