<svg xmlns="http://www.w3.org/2000/svg" width="24" height="22" viewBox="0 0 24 22"><g><g><path fill="#fff" d="M24 1.25v1.5a.75.75 0 0 1-.75.75h-12a.75.75 0 0 1-.75-.75v-1.5a.75.75 0 0 1 .75-.75h12a.75.75 0 0 1 .75.75zm-6 12v1.5a.75.75 0 0 1-.75.75h-6a.75.75 0 0 1-.75-.75v-1.5a.75.75 0 0 1 .75-.75h6a.75.75 0 0 1 .75.75zm3-6v1.5a.75.75 0 0 1-.75.75h-9a.75.75 0 0 1-.75-.75v-1.5a.75.75 0 0 1 .75-.75h9a.75.75 0 0 1 .75.75zM8.781 16.78l-3.75 4.5a.75.75 0 0 1-1.06 0l-3.75-4.5A.75.75 0 0 1 .75 15.5H3V1.25A.75.75 0 0 1 3.75.5h1.5a.75.75 0 0 1 .75.75V15.5h2.25c.667 0 1 .809.531 1.28zM15 19.25v1.5a.75.75 0 0 1-.75.75h-3a.75.75 0 0 1-.75-.75v-1.5a.75.75 0 0 1 .75-.75h3a.75.75 0 0 1 .75.75z"/></g></g></svg>