<?xml version="1.0" encoding="utf-8"?>
<!-- Generator: Adobe Illustrator 16.0.0, SVG Export Plug-In . SVG Version: 6.00 Build 0)  -->
<!DOCTYPE svg PUBLIC "-//W3C//DTD SVG 1.1//EN" "http://www.w3.org/Graphics/SVG/1.1/DTD/svg11.dtd">
<svg version="1.1" id="Layer_1" xmlns="http://www.w3.org/2000/svg" xmlns:xlink="http://www.w3.org/1999/xlink" x="0px" y="0px"
	 width="24px" height="28px" viewBox="0 0 24 28" enable-background="new 0 0 24 28" xml:space="preserve">
<g>
	<g>
		<path fill="#FFFFFF" d="M18.857,3.429V0.857C18.855,0.384,18.473,0.001,18,0h-1.714c-0.473,0.001-0.855,0.384-0.856,0.857V3.43
			H8.57V0.857C8.568,0.385,8.186,0.002,7.714,0H6C5.527,0.001,5.145,0.384,5.143,0.857V3.43H2.57C1.151,3.431,0.001,4.581,0,6v2.571
			h24V6c0-1.42-1.151-2.57-2.57-2.571H18.857z M3.43,21.214c0-0.353,0.289-0.644,0.642-0.644h2.143c0.354,0,0.643,0.291,0.643,0.644
			v2.144c0,0.354-0.29,0.643-0.643,0.643H4.071c-0.354-0.002-0.641-0.289-0.642-0.643L3.43,21.214z M3.43,14.357
			c0-0.353,0.289-0.643,0.642-0.643h2.143c0.354,0,0.643,0.29,0.643,0.643V16.5c0,0.354-0.29,0.643-0.643,0.643H4.071
			C3.717,17.142,3.43,16.854,3.429,16.5L3.43,14.357z M10.287,21.214c0-0.353,0.289-0.644,0.643-0.644h2.142
			c0.354,0,0.643,0.291,0.643,0.644v2.144c0,0.354-0.289,0.643-0.643,0.643H10.93c-0.355-0.001-0.642-0.288-0.643-0.643V21.214z
			 M10.287,14.357c0-0.353,0.289-0.643,0.643-0.643h2.142c0.354,0,0.643,0.29,0.643,0.643V16.5c0,0.354-0.289,0.643-0.643,0.643
			H10.93c-0.355,0-0.642-0.288-0.643-0.643V14.357z M17.145,21.214c0-0.353,0.289-0.644,0.643-0.644h2.143
			c0.354,0,0.643,0.291,0.643,0.644v2.144c0,0.354-0.289,0.643-0.643,0.643h-2.143c-0.355-0.001-0.643-0.288-0.643-0.643V21.214z
			 M17.145,14.357c0-0.353,0.289-0.643,0.643-0.643h2.143c0.354,0,0.643,0.29,0.643,0.643V16.5c0,0.354-0.289,0.643-0.643,0.643
			h-2.143c-0.355,0-0.643-0.288-0.643-0.643V14.357z M0,24.857c0,1.42,1.151,2.571,2.571,2.572H21.43
			c1.42-0.002,2.57-1.152,2.57-2.572V10.286H0V24.857z"/>
	</g>
</g>
</svg>
