<?xml version="1.0" encoding="utf-8"?>
<!-- Generator: Adobe Illustrator 16.0.0, SVG Export Plug-In . SVG Version: 6.00 Build 0)  -->
<!DOCTYPE svg PUBLIC "-//W3C//DTD SVG 1.1//EN" "http://www.w3.org/Graphics/SVG/1.1/DTD/svg11.dtd">
<svg version="1.1" id="Layer_1" xmlns="http://www.w3.org/2000/svg" xmlns:xlink="http://www.w3.org/1999/xlink" x="0px" y="0px"
	 width="44.236px" height="44.236px" viewBox="0 0 44.236 44.236" enable-background="new 0 0 44.236 44.236" xml:space="preserve">
<path id="filming" fill="#FFFFFF" d="M44.236,22.118C44.236,9.902,34.334,0,22.118,0S0,9.902,0,22.118s9.902,22.118,22.118,22.118
	l0,0h22.118V40.55h-9.907C40.513,36.456,44.233,29.535,44.236,22.118z M32.952,37.03c-2.471,1.795-5.929,1.248-7.725-1.223
	c-1.795-2.471-1.248-5.929,1.223-7.725c2.471-1.795,5.93-1.248,7.725,1.223c0,0,0,0,0,0.001
	C35.97,31.776,35.424,35.234,32.952,37.03L32.952,37.03z M32.68,12.872c2.903-0.943,6.022,0.646,6.966,3.551
	s-0.646,6.023-3.55,6.967c-2.904,0.942-6.022-0.646-6.967-3.55c-0.943-2.903,0.646-6.023,3.549-6.967
	C32.679,12.872,32.679,12.872,32.68,12.872z M22.118,3.686c3.055,0,5.53,2.476,5.53,5.529c0,3.055-2.476,5.53-5.53,5.53
	c-3.054,0-5.53-2.476-5.53-5.53C16.588,6.162,19.064,3.686,22.118,3.686L22.118,3.686z M4.588,16.422
	c0.944-2.904,4.063-4.494,6.969-3.55c2.904,0.943,4.494,4.063,3.551,6.968c-0.944,2.904-4.064,4.494-6.969,3.551l0,0
	C5.234,22.445,3.645,19.326,4.588,16.422z M19.008,35.806c-1.795,2.47-5.252,3.018-7.723,1.223s-3.018-5.253-1.223-7.723
	c1.795-2.471,5.252-3.019,7.723-1.224S20.802,33.336,19.008,35.806L19.008,35.806z M20.275,22.118c0-1.018,0.825-1.843,1.843-1.843
	s1.843,0.825,1.843,1.843s-0.825,1.843-1.843,1.843S20.275,23.135,20.275,22.118L20.275,22.118z"/>
</svg>
