<?xml version="1.0" encoding="utf-8"?>
<!-- Generator: Adobe Illustrator 16.0.0, SVG Export Plug-In . SVG Version: 6.00 Build 0)  -->
<!DOCTYPE svg PUBLIC "-//W3C//DTD SVG 1.1//EN" "http://www.w3.org/Graphics/SVG/1.1/DTD/svg11.dtd">
<svg version="1.1" id="Layer_1" xmlns="http://www.w3.org/2000/svg" xmlns:xlink="http://www.w3.org/1999/xlink" x="0px" y="0px"
	 width="68.713px" height="90.411px" viewBox="0 0 68.713 90.411" enable-background="new 0 0 68.713 90.411" xml:space="preserve">
<g id="Group_107" transform="translate(-159 -346.922)">
	<g id="Icon_ionic-ios-document" transform="translate(151.688 342.985)">
		<path id="Path_124" fill="#FFFFFF" d="M54.331,26.316h20.564c0.618,0.006,1.124-0.49,1.13-1.108c0-0.007,0-0.015,0-0.022l0,0
			c0.009-2-0.88-3.899-2.419-5.176L56.36,5.633c-1.309-1.085-2.956-1.678-4.656-1.673l0,0c-0.922-0.003-1.67,0.742-1.674,1.664
			c0,0.003,0,0.006,0,0.009v16.383c-0.004,2.371,1.915,4.296,4.286,4.3C54.321,26.316,54.325,26.316,54.331,26.316z"/>
		<path id="Path_125" fill="#FFFFFF" d="M44.155,22.02V3.938h-29.61c-3.989,0.012-7.22,3.243-7.232,7.232v75.945
			c0.012,3.99,3.243,7.223,7.233,7.234h54.246c3.99-0.015,7.226-3.244,7.233-7.234V32.191h-21.7
			C48.711,32.182,44.165,27.633,44.155,22.02z"/>
	</g>
	<g enable-background="new    ">
		<path fill="#6CCAD3" d="M175.641,404.531v6.47h-2.848v-17.063h6.539c1.883,0,3.357,0.484,4.424,1.459
			c1.067,0.975,1.6,2.252,1.6,3.838c0,1.604-0.533,2.887-1.6,3.852c-1.067,0.965-2.541,1.445-4.424,1.445L175.641,404.531
			L175.641,404.531z M175.641,402.247h3.691c1.055,0,1.848-0.281,2.379-0.845c0.531-0.563,0.797-1.276,0.797-2.146
			c0-0.867-0.266-1.59-0.797-2.168c-0.531-0.578-1.324-0.867-2.379-0.867h-3.691V402.247z"/>
		<path fill="#6CCAD3" d="M188.074,411.001v-17.063h5.637c2.164,0,3.924,0.676,5.279,2.025c1.354,1.353,2.032,3.09,2.032,5.215
			v2.592c0,2.133-0.68,3.869-2.032,5.215c-1.355,1.346-3.115,2.018-5.279,2.018h-5.637V411.001z M190.922,396.221v12.504h2.789
			c1.367,0,2.453-0.463,3.259-1.389c0.805-0.926,1.206-2.115,1.206-3.567v-2.613c0-1.438-0.401-2.618-1.206-3.545
			c-0.806-0.927-1.892-1.39-3.259-1.39H190.922L190.922,396.221z"/>
		<path fill="#6CCAD3" d="M213.879,403.721H207v7.279h-2.849v-17.063h10.923v2.284H207v5.216h6.879V403.721z"/>
	</g>
</g>
</svg>
