<svg xmlns="http://www.w3.org/2000/svg" width="67.576" height="43.917" viewBox="0 0 67.576 43.917">
  <g id="Icon_ionic-ios-people" data-name="Icon ionic-ios-people" transform="translate(-2.215 -7.748)">
    <path id="Path_26" data-name="Path 26" d="M43.2,41.537c-1.686-.6-4.44-.632-5.659-1.1a8,8,0,0,1-2.619-1.219c-.436-.527-.436-4.289-.436-4.289a6.929,6.929,0,0,0,1.49-2.107,23.418,23.418,0,0,0,.722-4.139s.993.421,1.385-1.565c.331-1.716.963-2.619.8-3.883-.181-1.264-.873-.963-.873-.963s.873-1.279.873-5.629c0-4.485-3.386-8.895-9.723-8.895-6.321,0-9.738,4.425-9.738,8.895,0,4.35.858,5.629.858,5.629s-.707-.3-.873.963c-.181,1.264.452,2.167.8,3.883.391,2,1.385,1.565,1.385,1.565a23.644,23.644,0,0,0,.722,4.139A6.929,6.929,0,0,0,23.8,34.93s0,3.763-.436,4.289a7.694,7.694,0,0,1-2.619,1.2c-1.2.467-3.958.527-5.659,1.129A10.622,10.622,0,0,0,8.191,51.666H50.077A10.6,10.6,0,0,0,43.2,41.537Z" transform="translate(6.816)" fill="#fff"/>
    <path id="Path_27" data-name="Path 27" d="M18.545,30.262s3.6-.12,5.027-1.4c-2.333-3.537-1.069-7.661-1.55-11.514-.482-3.838-2.664-6.141-7.029-6.141h-.06c-4.214,0-6.487,2.288-6.968,6.141-.482,3.838.858,8.428-1.535,11.514,1.43,1.294,5.042,1.249,5.042,1.249h0a7.622,7.622,0,0,1-.151,2.528,3.8,3.8,0,0,1-1.806.828,34.921,34.921,0,0,0-3.9,1.084,6.337,6.337,0,0,0-3.4,5.6H14.3c.331-1.2,2.6-3.356,4.816-4.485a10.107,10.107,0,0,1,3.717-.783s.572-.9-1.309-1.249a12.829,12.829,0,0,1-2.89-1.008C18.349,32.293,18.545,30.262,18.545,30.262Z" transform="translate(0 3.945)" fill="#fff"/>
    <path id="Path_28" data-name="Path 28" d="M28.835,30.262s-3.6-.12-5.027-1.4c2.333-3.537,1.069-7.661,1.55-11.514.482-3.838,2.664-6.141,7.029-6.141h.06c4.214,0,6.487,2.288,6.968,6.141.482,3.838-.858,8.428,1.535,11.514-1.43,1.294-5.042,1.249-5.042,1.249h0a7.622,7.622,0,0,0,.151,2.528,3.8,3.8,0,0,0,1.806.828,34.921,34.921,0,0,1,3.9,1.084,6.337,6.337,0,0,1,3.4,5.6H33.079c-.331-1.2-2.6-3.356-4.816-4.485a10.106,10.106,0,0,0-3.717-.783s-.572-.9,1.309-1.249a12.83,12.83,0,0,0,2.89-1.008C29.03,32.293,28.835,30.262,28.835,30.262Z" transform="translate(24.627 3.945)" fill="#fff"/>
  </g>
</svg>
