<?xml version="1.0" encoding="utf-8"?>
<!-- Generator: Adobe Illustrator 16.0.0, SVG Export Plug-In . SVG Version: 6.00 Build 0)  -->
<!DOCTYPE svg PUBLIC "-//W3C//DTD SVG 1.1//EN" "http://www.w3.org/Graphics/SVG/1.1/DTD/svg11.dtd">
<svg version="1.1" id="Layer_1" xmlns="http://www.w3.org/2000/svg" xmlns:xlink="http://www.w3.org/1999/xlink" x="0px" y="0px"
	 width="19px" height="19px" viewBox="0 0 19 19" enable-background="new 0 0 19 19" xml:space="preserve">
<g>
	<g opacity="0">
	</g>
	<g opacity="0">
		<path fill="#65696C" d="M8.036,13.489H8.027"/>
	</g>
	<g opacity="0">
	</g>
</g>
<path fill="#65696C" d="M17.781,1.203c-0.963-0.961-2.521-0.961-3.484,0L5.018,10.48c-0.094,0.094-0.157,0.213-0.183,0.343
	L4.2,13.991c-0.074,0.362,0.16,0.716,0.522,0.79c0.045,0.01,0.09,0.014,0.136,0.014H4.86c0.044,0,0.089-0.005,0.132-0.014
	l3.167-0.633c0.13-0.026,0.25-0.09,0.343-0.185l9.277-9.278c0.463-0.46,0.724-1.087,0.722-1.741
	C18.501,2.286,18.245,1.668,17.781,1.203z M16.83,3.737L7.696,12.87l-1.979,0.396l0.395-1.979l9.134-9.133
	c0.439-0.436,1.15-0.433,1.586,0.007c0.208,0.209,0.324,0.491,0.326,0.785C17.158,3.244,17.041,3.525,16.83,3.737z"/>
<path fill="#65696C" d="M15.953,18.482H2.963c-1.36-0.001-2.462-1.104-2.463-2.463V3.03c0.001-1.36,1.104-2.462,2.464-2.463h7.614
	c0.371,0,0.672,0.301,0.672,0.672c0,0.371-0.301,0.672-0.672,0.672H2.964c-0.618,0-1.12,0.503-1.12,1.12v12.99
	c0,0.617,0.502,1.119,1.12,1.119h12.99c0.616,0,1.119-0.502,1.119-1.119V8.404c0-0.371,0.301-0.672,0.672-0.671
	c0.371,0,0.672,0.301,0.672,0.671v7.614C18.416,17.379,17.313,18.48,15.953,18.482L15.953,18.482z"/>
<path fill="#65696C" d="M16.038,6.15c-0.179,0.001-0.349-0.07-0.476-0.196l-2.533-2.535c-0.269-0.255-0.28-0.681-0.025-0.95
	c0.256-0.269,0.681-0.281,0.95-0.025c0.009,0.008,0.018,0.017,0.026,0.025l2.533,2.534c0.264,0.262,0.264,0.688,0.002,0.95
	C16.389,6.08,16.217,6.151,16.038,6.15L16.038,6.15z"/>
</svg>
