<svg xmlns="http://www.w3.org/2000/svg" width="21" height="25.211" viewBox="0 0 21 25.211">
  <g id="_09-timer" data-name="09-timer" transform="translate(-8)">
    <path id="Path_125" data-name="Path 125" d="M26.133,7.5l1.509-1.509L26.158,4.507,24.544,6.122A10.434,10.434,0,0,0,19.55,4.253V2.1h2.1V0h-6.3V2.1h2.1V4.253a10.434,10.434,0,0,0-4.994,1.869L10.842,4.507,9.358,5.993,10.866,7.5a10.5,10.5,0,1,0,15.267,0ZM18.5,23.1a8.4,8.4,0,1,1,8.4-8.4A8.4,8.4,0,0,1,18.5,23.1Z" fill="#fff"/>
    <path id="Path_126" data-name="Path 126" d="M30.3,32v6.3H24A6.3,6.3,0,1,0,30.3,32Z" transform="translate(-11.8 -23.6)" fill="#fff"/>
  </g>
</svg>
