<?xml version="1.0" encoding="utf-8"?>
<!-- Generator: Adobe Illustrator 16.0.0, SVG Export Plug-In . SVG Version: 6.00 Build 0)  -->
<!DOCTYPE svg PUBLIC "-//W3C//DTD SVG 1.1//EN" "http://www.w3.org/Graphics/SVG/1.1/DTD/svg11.dtd">
<svg version="1.1" id="Layer_1" xmlns="http://www.w3.org/2000/svg" xmlns:xlink="http://www.w3.org/1999/xlink" x="0px" y="0px"
	 width="21px" height="14px" viewBox="0 0 21 14" enable-background="new 0 0 21 14" xml:space="preserve">
<path fill="#6CCAD3" d="M7.712,0.508c0.356,0.356,0.359,0.933,0.007,1.293L3.452,6.083h16.263c0.5,0,0.907,0.408,0.907,0.914
	c0.002,0.502-0.403,0.913-0.906,0.915h-0.001H3.452l4.275,4.281c0.35,0.361,0.347,0.938-0.007,1.295
	c-0.357,0.354-0.933,0.35-1.287-0.008l0,0L0.638,7.645C0.56,7.561,0.496,7.462,0.448,7.356c-0.141-0.338-0.066-0.729,0.19-0.991
	L6.433,0.53C6.773,0.17,7.34,0.155,7.7,0.495C7.704,0.5,7.708,0.503,7.712,0.508L7.712,0.508z"/>
</svg>
