<?xml version="1.0" encoding="utf-8"?>
<!-- Generator: Adobe Illustrator 16.0.0, SVG Export Plug-In . SVG Version: 6.00 Build 0)  -->
<!DOCTYPE svg PUBLIC "-//W3C//DTD SVG 1.1//EN" "http://www.w3.org/Graphics/SVG/1.1/DTD/svg11.dtd">
<svg version="1.1" id="contract" xmlns="http://www.w3.org/2000/svg" xmlns:xlink="http://www.w3.org/1999/xlink" x="0px" y="0px"
	 width="44px" height="44px" viewBox="0 0 44 44" enable-background="new 0 0 44 44" xml:space="preserve">
<g id="Group_4" transform="translate(25.714)">
	<g id="Group_3">
		<path id="Path_31" fill="#6CCAD3" d="M7.759,7.513c0.004-1.026-0.404-2.011-1.133-2.734L2.977,1.133
			C2.242,0.41,1.253,0.004,0.222,0H0v7.734h7.759V7.513L7.759,7.513z"/>
	</g>
</g>
<g id="Group_6">
	<g id="Group_5">
		<path id="Path_32" fill="#6CCAD3" d="M23.542,26.6c0.253-0.757,0.677-1.443,1.239-2.012l8.727-8.688v-5.587H24.45
			c-0.692-0.001-1.252-0.563-1.251-1.255c0-0.012,0-0.023,0.001-0.035V0H3.867C1.732,0.002,0.002,1.732,0,3.867v36.266
			C0.002,42.268,1.732,43.998,3.867,44h25.74c2.141,0,3.881-1.727,3.897-3.867v-9.621l-1.417,1.383
			c-0.563,0.563-1.246,0.984-2,1.235l-4.1,1.368l-0.625,0.034c-1.779-0.001-3.221-1.445-3.22-3.226c0-0.349,0.056-0.691,0.167-1.021
			L23.542,26.6z M6.442,23.2h12.852c0.712-0.001,1.29,0.575,1.29,1.288c0.001,0.711-0.576,1.289-1.288,1.289
			c-0.001,0-0.001,0-0.002,0H6.445c-0.712,0.002-1.29-0.575-1.29-1.287C5.155,23.777,5.731,23.201,6.442,23.2
			c0.001,0,0.002,0,0.003,0H6.442z M5.156,19.336c-0.001-0.711,0.575-1.289,1.287-1.289c0.001,0,0.001,0,0.002,0h12.849
			c0.712,0,1.29,0.576,1.29,1.288c0.001,0.712-0.576,1.29-1.288,1.29c-0.001,0-0.001,0-0.002,0H6.445
			c-0.711,0-1.288-0.576-1.289-1.287C5.156,19.337,5.156,19.337,5.156,19.336z M5.156,29.648c-0.001-0.711,0.575-1.289,1.287-1.289
			c0.001,0,0.001,0,0.002,0h12.849c0.712,0,1.29,0.576,1.29,1.289c0.001,0.711-0.576,1.289-1.288,1.289c-0.001,0-0.001,0-0.002,0
			H6.445c-0.711,0-1.288-0.576-1.289-1.287V29.648L5.156,29.648z M24.45,36.094c0.712,0,1.288,0.576,1.29,1.288
			c0,0.712-0.576,1.29-1.288,1.29c-0.001,0-0.001,0-0.002,0h-7.734c-0.712,0-1.288-0.578-1.288-1.29
			c0-0.711,0.577-1.287,1.288-1.288H24.45z M6.445,15.469c-0.712,0-1.289-0.577-1.289-1.289c0-0.712,0.577-1.289,1.289-1.289l0,0
			H24.45c0.712,0,1.288,0.577,1.288,1.289c0,0.712-0.576,1.289-1.288,1.289H6.445z"/>
	</g>
</g>
<g id="Group_8" transform="translate(24.721 27.741)">
	<g id="Group_7">
		<path id="Path_33" fill="#6CCAD3" d="M1.155,0L0.033,3.364C-0.08,3.702,0.101,4.068,0.439,4.181
			c0.133,0.044,0.277,0.044,0.41-0.001l3.363-1.123L1.155,0z"/>
	</g>
</g>
<g id="Group_10" transform="translate(27.399 17.128)">
	<g id="Group_9">
		<path id="Path_34" fill="#6CCAD3" d="M8.49,0l-8.49,8.49l3.662,3.661l8.488-8.49L8.49,0z"/>
	</g>
</g>
<g id="Group_12" transform="translate(37.711 12.714)">
	<g id="Group_11">
		<path id="Path_35" fill="#6CCAD3" d="M5.531,0.716c-1.032-0.956-2.626-0.956-3.658,0L0,2.589L3.661,6.25l1.873-1.873
			C6.538,3.363,6.537,1.729,5.531,0.716z"/>
	</g>
</g>
<g id="Group_15" transform="translate(43.245 17.067)">
	<g id="Group_14">
		<g id="Group_13">
			<path id="Path_36" fill="#001489" d="M0,0.026L0,0.026l0.007-0.007L0,0.026z"/>
			<path id="Path_37" fill="#001489" d="M0.005,0.017l0.012-0.011L0.005,0.017z"/>
			<path id="Path_38" fill="#001489" d="M0.019,0.006"/>
		</g>
	</g>
</g>
</svg>
