<svg xmlns="http://www.w3.org/2000/svg" width="24" height="28" viewBox="0 0 24 28"><g><g><path d="M18.857 3.429V.857A.86.86 0 0 0 18 0h-1.714a.86.86 0 0 0-.857.857V3.43H8.57V.857A.86.86 0 0 0 7.714 0H6a.86.86 0 0 0-.857.857V3.43H2.57A2.572 2.572 0 0 0 0 6v2.571h24V6a2.572 2.572 0 0 0-2.571-2.571zM3.43 21.214c0-.353.289-.643.642-.643h2.143c.354 0 .643.29.643.643v2.143c0 .354-.29.643-.643.643H4.071a.645.645 0 0 1-.642-.643zm0-6.857c0-.353.289-.643.642-.643h2.143c.354 0 .643.29.643.643V16.5c0 .354-.29.643-.643.643H4.071a.645.645 0 0 1-.642-.643zm6.857 6.857c0-.353.289-.643.643-.643h2.142c.354 0 .643.29.643.643v2.143c0 .354-.289.643-.643.643H10.93a.645.645 0 0 1-.643-.643zm0-6.857c0-.353.289-.643.643-.643h2.142c.354 0 .643.29.643.643V16.5c0 .354-.289.643-.643.643H10.93a.645.645 0 0 1-.643-.643zm6.857 6.857c0-.353.29-.643.643-.643h2.143c.353 0 .642.29.642.643v2.143c0 .354-.289.643-.642.643h-2.143a.645.645 0 0 1-.643-.643zm0-6.857c0-.353.29-.643.643-.643h2.143c.353 0 .642.29.642.643V16.5c0 .354-.289.643-.642.643h-2.143a.645.645 0 0 1-.643-.643zM0 24.857a2.572 2.572 0 0 0 2.571 2.572H21.43A2.572 2.572 0 0 0 24 24.857V10.286H0z"/></g></g></svg>