<?xml version="1.0" encoding="utf-8"?>
<!-- Generator: Adobe Illustrator 16.0.0, SVG Export Plug-In . SVG Version: 6.00 Build 0)  -->
<!DOCTYPE svg PUBLIC "-//W3C//DTD SVG 1.1//EN" "http://www.w3.org/Graphics/SVG/1.1/DTD/svg11.dtd">
<svg version="1.1" id="Layer_1" xmlns="http://www.w3.org/2000/svg" xmlns:xlink="http://www.w3.org/1999/xlink" x="0px" y="0px"
	 width="19px" height="18px" viewBox="0 0 19 18" enable-background="new 0 0 19 18" xml:space="preserve">
<path fill="#FFFFFF" d="M15.863,1.926H3.138C1.405,1.926,0,3.331,0,5.064v6.014v5.927l3.1-2.79c0.013,0,0.025,0.001,0.038,0.001
	h12.726c1.732,0,3.137-1.405,3.137-3.138V5.064C19,3.331,17.596,1.926,15.863,1.926z M15.896,11.565H3.103
	c-0.391,0-0.708-0.316-0.708-0.708c0-0.391,0.316-0.707,0.708-0.707h12.793c0.391,0,0.708,0.316,0.708,0.707
	C16.604,11.249,16.287,11.565,15.896,11.565z M15.896,9.063H3.103c-0.391,0-0.708-0.316-0.708-0.708s0.316-0.708,0.708-0.708h12.793
	c0.391,0,0.708,0.316,0.708,0.708S16.287,9.063,15.896,9.063z M15.896,6.561H3.103c-0.391,0-0.708-0.316-0.708-0.708
	s0.316-0.708,0.708-0.708h12.793c0.391,0,0.708,0.316,0.708,0.708S16.287,6.561,15.896,6.561z"/>
</svg>
