<?xml version="1.0" encoding="utf-8"?>
<!-- Generator: Adobe Illustrator 16.0.0, SVG Export Plug-In . SVG Version: 6.00 Build 0)  -->
<!DOCTYPE svg PUBLIC "-//W3C//DTD SVG 1.1//EN" "http://www.w3.org/Graphics/SVG/1.1/DTD/svg11.dtd">
<svg version="1.1" id="Layer_1" xmlns="http://www.w3.org/2000/svg" xmlns:xlink="http://www.w3.org/1999/xlink" x="0px" y="0px"
	 width="27px" height="31px" viewBox="0 0 27 31" enable-background="new 0 0 27 31" xml:space="preserve">
<path fill="#FFFFFF" d="M17.906,2.416c0.332,0.115,0.566,0.241,0.705,0.379l5.39,5.389c0.138,0.138,0.265,0.373,0.377,0.705h-6.472
	V2.416z"/>
<g>
	<path fill="#FFFFFF" d="M14.859,19.339c-0.874-0.769-1.601-1.778-2.187-3.028c-0.31,0.985-0.787,2.117-1.429,3.39
		c-0.344,0.644-0.602,1.118-0.774,1.429c1.549-0.619,3.178-1.084,4.889-1.395c-0.024-0.014-0.098-0.066-0.226-0.164
		C15.009,19.475,14.918,19.396,14.859,19.339z"/>
	<path fill="#FFFFFF" d="M12.692,11.265c0-0.034,0.04-0.28,0.12-0.74c0.012-0.051,0.036-0.098,0.069-0.139
		c-0.012-0.011-0.018-0.021-0.018-0.033s-0.003-0.02-0.009-0.026c-0.007-0.004-0.009-0.014-0.009-0.024
		c-0.001-0.226-0.08-0.445-0.224-0.621c0,0.012-0.006,0.023-0.017,0.035V9.75c-0.173,0.483-0.183,1.24-0.032,2.273
		C12.582,11.942,12.622,11.69,12.692,11.265z"/>
	<path fill="#FFFFFF" d="M21.588,20.854c-0.273-0.274-1.078-0.412-2.41-0.412c0.873,0.32,1.586,0.482,2.137,0.482
		c0.104,0.004,0.207-0.002,0.309-0.017c0-0.013-0.012-0.03-0.033-0.054H21.588z"/>
	<path fill="#FFFFFF" d="M6.605,24.314c-0.419,0.504-0.703,0.93-0.852,1.273c0.596-0.275,1.383-1.182,2.359-2.719
		C7.56,23.295,7.054,23.78,6.605,24.314z"/>
	<path fill="#FFFFFF" d="M17.354,11.093c-0.457,0-0.848-0.16-1.17-0.482c-0.322-0.321-0.481-0.711-0.481-1.17V2.279H2.481v26.442
		h22.035V11.093H17.354z M22.209,21.093c0,0.011-0.006,0.022-0.018,0.033l-0.034,0.035v0.019c-0.07,0.435-0.478,0.652-1.222,0.652
		c-0.551,0-1.211-0.115-1.98-0.344c-0.768-0.229-1.514-0.533-2.238-0.913c-2.535,0.276-4.785,0.752-6.748,1.43
		c-1.756,3.006-3.145,4.511-4.166,4.511c-0.171,0-0.332-0.041-0.481-0.121l-0.413-0.207c-0.012-0.011-0.046-0.039-0.104-0.084
		c-0.115-0.115-0.15-0.322-0.104-0.621c0.104-0.459,0.424-0.984,0.965-1.575c0.538-0.591,1.296-1.144,2.271-1.661
		c0.16-0.104,0.292-0.068,0.396,0.104c0.022,0.022,0.034,0.045,0.034,0.068c0.665-1.102,1.28-2.232,1.843-3.391
		c0.779-1.562,1.377-3.065,1.789-4.51c-0.274-0.941-0.449-1.856-0.524-2.746c-0.076-0.888-0.038-1.621,0.112-2.195
		c0.125-0.459,0.367-0.688,0.722-0.688h0.38c0.264,0,0.464,0.086,0.602,0.258c0.206,0.24,0.258,0.631,0.156,1.171
		c-0.013,0.05-0.037,0.097-0.07,0.137c0.014,0.045,0.02,0.091,0.018,0.138v0.517c-0.023,1.411-0.103,2.514-0.241,3.306
		c0.632,1.883,1.469,3.247,2.515,4.099c0.459,0.352,0.942,0.674,1.444,0.963c0.679-0.08,1.349-0.121,2.015-0.121
		c1.688,0,2.703,0.281,3.047,0.845C22.359,20.452,22.37,20.751,22.209,21.093z"/>
</g>
</svg>
