<?xml version="1.0" encoding="utf-8"?>
<!-- Generator: Adobe Illustrator 16.0.0, SVG Export Plug-In . SVG Version: 6.00 Build 0)  -->
<!DOCTYPE svg PUBLIC "-//W3C//DTD SVG 1.1//EN" "http://www.w3.org/Graphics/SVG/1.1/DTD/svg11.dtd">
<svg version="1.1" id="Layer_1" xmlns="http://www.w3.org/2000/svg" xmlns:xlink="http://www.w3.org/1999/xlink" x="0px" y="0px"
	 width="67.576px" height="43.917px" viewBox="0 0 67.576 43.917" enable-background="new 0 0 67.576 43.917" xml:space="preserve">
<g id="Icon_ionic-ios-people" transform="translate(-2.215 -7.748)">
	<path id="Path_26" fill="#001489" d="M50.016,41.537c-1.686-0.6-4.44-0.631-5.659-1.1c-0.939-0.244-1.826-0.657-2.619-1.219
		c-0.436-0.527-0.436-4.289-0.436-4.289c0.625-0.604,1.13-1.318,1.49-2.107c0.364-1.355,0.605-2.74,0.722-4.139
		c0,0,0.993,0.421,1.386-1.565c0.33-1.716,0.963-2.619,0.799-3.883c-0.18-1.264-0.873-0.963-0.873-0.963s0.873-1.279,0.873-5.629
		c0-4.485-3.385-8.895-9.722-8.895c-6.321,0-9.738,4.425-9.738,8.895c0,4.35,0.858,5.629,0.858,5.629s-0.707-0.3-0.873,0.963
		c-0.181,1.264,0.452,2.167,0.8,3.883c0.391,2,1.385,1.565,1.385,1.565c0.118,1.398,0.359,2.783,0.722,4.139
		c0.359,0.789,0.863,1.505,1.486,2.108c0,0,0,3.763-0.436,4.289c-0.79,0.562-1.678,0.968-2.619,1.2
		c-1.2,0.467-3.958,0.527-5.659,1.129c-4.207,1.575-6.967,5.627-6.895,10.117h41.887C56.98,47.173,54.224,43.115,50.016,41.537z"/>
	<path id="Path_27" fill="#001489" d="M18.545,34.206c0,0,3.6-0.119,5.027-1.399c-2.333-3.537-1.069-7.661-1.55-11.514
		c-0.482-3.838-2.664-6.141-7.029-6.141h-0.06c-4.214,0-6.487,2.288-6.968,6.141c-0.482,3.838,0.858,8.428-1.535,11.514
		c1.43,1.294,5.042,1.249,5.042,1.249l0,0c0.091,0.846,0.04,1.699-0.151,2.527c-0.518,0.432-1.141,0.718-1.806,0.828
		c-1.32,0.286-2.622,0.648-3.9,1.084c-2.085,1.092-3.394,3.248-3.4,5.601H14.3c0.331-1.2,2.6-3.356,4.816-4.485
		c1.179-0.493,2.44-0.76,3.717-0.783c0,0,0.572-0.899-1.309-1.248c-1-0.221-1.97-0.559-2.89-1.008
		C18.349,36.238,18.545,34.206,18.545,34.206z"/>
	<path id="Path_28" fill="#001489" d="M53.462,34.206c0,0-3.6-0.119-5.027-1.399c2.334-3.537,1.069-7.661,1.551-11.514
		c0.481-3.838,2.664-6.141,7.028-6.141h0.06c4.215,0,6.488,2.288,6.969,6.141c0.482,3.838-0.858,8.428,1.535,11.514
		c-1.43,1.294-5.043,1.249-5.043,1.249l0,0c-0.09,0.846-0.039,1.699,0.152,2.527c0.518,0.432,1.141,0.718,1.805,0.828
		c1.32,0.286,2.623,0.648,3.9,1.084c2.086,1.092,3.395,3.248,3.4,5.601H57.706c-0.331-1.2-2.6-3.356-4.816-4.485
		c-1.178-0.494-2.439-0.76-3.717-0.783c0,0-0.572-0.899,1.309-1.248c1-0.221,1.971-0.559,2.891-1.008
		C53.657,36.238,53.462,34.206,53.462,34.206z"/>
</g>
</svg>
